<svg xmlns="http://www.w3.org/2000/svg" viewBox="0 0 320 180"><defs><linearGradient id="s" x1="0" y1="0" x2="0" y2="1"><stop offset="0" stop-color="#e0f2fe"/><stop offset="1" stop-color="#7dd3fc"/></linearGradient></defs><rect width="320" height="180" fill="url(#s)"/><path d="M200 100 250 56l70 44z" fill="#475569"/><rect y="100" width="320" height="80" fill="#0369a1"/><path d="M0 122q20-8 40 0t40 0 40 0 40 0 40 0 40 0 40 0 40 0M0 146q20-8 40 0t40 0 40 0 40 0 40 0 40 0 40 0 40 0" stroke="#bae6fd" stroke-width="3" fill="none" opacity=".7"/><path d="M0 180v-18c50-10 90-6 130 6v12z" fill="#fde68a"/></svg>
